<?xml version="1.0" encoding="UTF-8"?>
<svg width="29px" height="29px" viewBox="0 0 29 29" version="1.1" xmlns="http://www.w3.org/2000/svg" xmlns:xlink="http://www.w3.org/1999/xlink">
    <!-- Generator: sketchtool 51.2 (57519) - http://www.bohemiancoding.com/sketch -->
    <title>10FF126C-1D76-4CCC-90A3-B00910A2C438</title>
    <desc>Created with sketchtool.</desc>
    <defs></defs>
    <g id="Page-1" stroke="none" stroke-width="1" fill="none" fill-rule="evenodd">
        <g id="Home" transform="translate(-442.000000, -4603.000000)">
            <g id="Group-28" transform="translate(328.000000, 4576.000000)">
                <g id="instagram" transform="translate(114.000000, 27.000000)">
                    <circle id="Oval" fill="#fff" cx="14.5" cy="14.5" r="14.5"></circle>
                    <path d="M18.4875941,8 L10.5124059,8 C9.12741063,8 8,9.12664628 8,10.5124059 L8,18.4875941 C8,19.8733537 9.12741063,21 10.5124059,21 L18.4875941,21 C19.8725894,21 21,19.8733537 21,18.4875941 L21,10.5124059 C21,9.12664628 19.8725894,8 18.4875941,8 L18.4875941,8 Z M19.2083725,9.49888288 L19.4957667,9.49735419 L19.4957667,11.7009643 L17.2990357,11.7078434 L17.2913923,9.5042333 L19.2083725,9.49888288 L19.2083725,9.49888288 Z M12.6449318,13.1654516 C13.0607361,12.5891345 13.7364182,12.2115475 14.5,12.2115475 C15.2635818,12.2115475 15.9392639,12.5891345 16.3550682,13.1654516 C16.6264111,13.5415099 16.7884525,14.0016463 16.7884525,14.5 C16.7884525,15.7611712 15.7619356,16.7876881 14.5,16.7876881 C13.2388288,16.7876881 12.2123119,15.7611712 12.2123119,14.5 C12.2123119,14.0016463 12.3743532,13.5415099 12.6449318,13.1654516 L12.6449318,13.1654516 Z M19.7334784,18.4875941 C19.7334784,19.1747413 19.1747413,19.7334784 18.4875941,19.7334784 L10.5124059,19.7334784 C9.8252587,19.7334784 9.26652164,19.1747413 9.26652164,18.4875941 L9.26652164,13.1654516 L11.207961,13.1654516 C11.0398048,13.5781985 10.9457902,14.0283984 10.9457902,14.5 C10.9457902,16.4597836 12.5402164,18.0549741 14.5,18.0549741 C16.460548,18.0549741 18.0549741,16.4597836 18.0549741,14.5 C18.0549741,14.0283984 17.9594309,13.5781985 17.7928034,13.1654516 L19.7334784,13.1654516 L19.7334784,18.4875941 L19.7334784,18.4875941 Z" id="Shape" fill="#333"></path>
                </g>
            </g>
        </g>
    </g>
</svg>