<?xml version="1.0" encoding="UTF-8"?>
<svg width="30px" height="30px" viewBox="0 0 30 30" version="1.1" xmlns="http://www.w3.org/2000/svg" xmlns:xlink="http://www.w3.org/1999/xlink">
    <!-- Generator: sketchtool 51.2 (57519) - http://www.bohemiancoding.com/sketch -->
    <title>C4E608A2-EABB-4FA7-AE52-052D831F33FC</title>
    <desc>Created with sketchtool.</desc>
    <defs></defs>
    <g id="Page-1" stroke="none" stroke-width="1" fill="none" fill-rule="evenodd">
        <g id="Home" transform="translate(-366.000000, -4603.000000)">
            <g id="Group-28" transform="translate(328.000000, 4576.000000)">
                <g id="linkedin" transform="translate(38.000000, 27.000000)">
                    <circle id="Oval" fill="#fc67fa" cx="15" cy="15" r="15"></circle>
                    <path d="M8.35312794,12.4891792 L11.0818438,12.4891792 L11.0818438,21.9991036 L8.35312794,21.9991036 L8.35312794,12.4891792 Z M9.64793039,11.2996542 L9.62817498,11.2996542 C8.64040452,11.2996542 8,10.5726726 8,9.65206813 C8,8.71263926 8.65933678,8 9.66686265,8 C10.6735654,8 11.2925682,8.71084646 11.3123236,9.64937892 C11.3123236,10.5699834 10.6735654,11.2996542 9.64793039,11.2996542 L9.64793039,11.2996542 Z M22,22 L18.905809,22 L18.905809,17.0778589 C18.905809,15.7897298 18.4218015,14.9112562 17.3574788,14.9112562 C16.5433913,14.9112562 16.0906632,15.5037777 15.8799389,16.0765783 C15.8009172,16.2809579 15.8132643,16.56691 15.8132643,16.8537585 L15.8132643,22 L12.7478833,22 C12.7478833,22 12.7873942,13.2815982 12.7478833,12.4891792 L15.8132643,12.4891792 L15.8132643,13.9816878 C15.9943556,13.3291074 16.9738946,12.3977462 18.5370414,12.3977462 C20.4763641,12.3977462 22,13.7665514 22,16.7112306 L22,22 L22,22 Z" id="Shape" fill="#FFFFFF"></path>
                </g>
            </g>
        </g>
    </g>
</svg>