<?xml version="1.0" encoding="UTF-8"?>
<svg width="30px" height="30px" viewBox="0 0 30 30" version="1.1" xmlns="http://www.w3.org/2000/svg" xmlns:xlink="http://www.w3.org/1999/xlink">
    <!-- Generator: sketchtool 51.2 (57519) - http://www.bohemiancoding.com/sketch -->
    <title>3FA5A4B1-91D9-4C10-A6F0-4CFC8E471B8A</title>
    <desc>Created with sketchtool.</desc>
    <defs></defs>
    <g id="Page-1" stroke="none" stroke-width="1" fill="none" fill-rule="evenodd">
        <g id="Home" transform="translate(-404.000000, -4603.000000)">
            <g id="Group-28" transform="translate(328.000000, 4576.000000)">
                <g id="youtube" transform="translate(76.000000, 27.000000)">
                    <defs>
                        <linearGradient id="grad1" x1="0%" y1="0%" x2="100%" y2="0%">
                        <stop offset="0%" style="stop-color:#f4c4f3;" />
                        <stop offset="51%" style="stop-color:#32ff03;stop-opacity:1" />
                        <stop offset="100%" style="stop-color:#f4c4f3;" />
                        </linearGradient>
                    </defs>
                    <rect id="Rectangle" x="0" y="0" width="30" height="30"></rect>
                    <circle id="Oval" fill="(#grad1)" cx="15" cy="15" r="15"></circle>
                    <path d="M10.3583033,19.2516847 L10.3696314,16.4968449 L10.8858689,16.4914464 L11.401567,16.4849683 L11.3956332,16.0606484 L11.38916,15.6357888 L9.89924565,15.6298504 L8.41041015,15.6239121 L8.41041015,16.0547101 L8.41041015,16.4849683 L8.91424072,16.4914464 L9.41807128,16.4968449 L9.42400504,19.2290112 C9.42670221,20.7314057 9.43425427,21.9741337 9.44018804,21.9897893 C9.44827954,22.011923 9.55292957,22.0173215 9.89870622,22.0124629 L10.3469752,22.0065246 L10.3583033,19.2516847 Z M18.9520128,19.0578796 C18.9309749,19.0028152 18.9601043,18.3663355 18.9881548,18.2740216 C19.0534262,18.0570031 19.1920606,17.951193 19.410531,17.951193 C19.59232,17.951193 19.7077586,18.0213732 19.785437,18.1790085 C19.8345254,18.2788802 19.8393803,18.3215282 19.8469324,18.6907836 L19.8544845,19.0929697 L19.4094521,19.0929697 C19.026994,19.0929697 18.9633409,19.0881111 18.9520128,19.0578796 L18.9520128,19.0578796 Z M19.7827399,22.0259591 C20.2186018,21.9034138 20.520145,21.6054182 20.6339654,21.1848772 C20.6528455,21.1130776 20.6749623,20.9084755 20.6825144,20.7308658 L20.6954607,20.4080373 L20.2757818,20.4080373 L19.8555633,20.4080373 L19.8453141,20.6973953 C19.8334466,21.0261622 19.7994623,21.1389902 19.6797081,21.2442604 C19.5524019,21.3560088 19.3182879,21.3641065 19.1661678,21.2615355 C18.9849182,21.1389902 18.9401453,20.9322288 18.9493156,20.260659 L18.9557888,19.7845138 L19.8248156,19.7791154 L20.6938424,19.7726372 L20.6825144,19.0643578 C20.6684891,18.2740216 20.6523061,18.1541755 20.5196055,17.8734551 C20.2666114,17.3417056 19.5658877,17.0734016 18.9838394,17.2855615 C18.5447408,17.4458961 18.2852734,17.7347143 18.1811628,18.1817078 C18.1444814,18.3393431 18.1401659,18.4807831 18.1401659,19.6371356 C18.1401659,21.0553139 18.1450208,21.1130776 18.2895889,21.4035153 C18.5479774,21.920149 19.1947577,22.1900726 19.7827399,22.0259591 L19.7827399,22.0259591 Z M16.3416958,21.2183478 C16.3950997,21.182178 16.4301628,21.1319722 16.4576739,21.0536944 C16.4927371,20.9505836 16.4959737,20.8194008 16.4911188,19.6031252 C16.4862639,18.3355642 16.4835667,18.2610653 16.4425698,18.1779288 C16.3373803,17.9657689 16.0725186,17.9452547 15.8297737,18.1309621 L15.7499376,18.191425 L15.7499376,19.6371356 L15.7499376,21.0828461 L15.8292343,21.143309 C16.0088655,21.2804302 16.2057586,21.3090421 16.3416958,21.2183478 L16.3416958,21.2183478 Z M16.8676431,22.0345966 C16.9998042,21.9962675 17.1594764,21.839172 17.231221,21.6788374 C17.3693159,21.3716644 17.3698554,21.3641065 17.3698554,19.6371356 C17.3698554,18.2194971 17.3655399,18.0445866 17.3304767,17.89127 C17.2166564,17.400549 16.9685171,17.1862297 16.5509958,17.2175408 C16.3174213,17.2358956 16.1334746,17.3287493 15.9128464,17.5419889 C15.8168273,17.6343028 15.7310575,17.7104212 15.7213477,17.7104212 C15.7127167,17.7104212 15.7046252,17.2407542 15.7046252,16.6674366 L15.7046252,15.624452 L15.2968138,15.624452 L14.8890023,15.624452 L14.8890023,18.8208867 L14.8890023,22.0178613 L15.2968138,22.0178613 L15.7046252,22.0178613 L15.7046252,21.8024623 C15.7046252,21.6594029 15.7132562,21.5870633 15.7299786,21.5870633 C15.7434644,21.5870633 15.8351681,21.6626419 15.9338843,21.7554956 C16.251071,22.0540311 16.5256425,22.1360879 16.8676431,22.0345966 L16.8676431,22.0345966 Z M12.5268245,22.0135426 C12.6897333,21.9530797 12.8812321,21.8202773 13.0425226,21.6561638 C13.116425,21.5805852 13.1903273,21.5190426 13.2065103,21.5190426 C13.2280876,21.5190426 13.2356397,21.5805852 13.2356397,21.768452 L13.2356397,22.0178613 L13.6434512,22.0178613 L14.0512626,22.0178613 L14.0512626,19.6484724 L14.0512626,17.2796232 L13.6434512,17.2796232 L13.2356397,17.2796232 L13.2356397,19.1070057 L13.2356397,20.934928 L13.0597845,21.1092987 C12.9206107,21.2480394 12.862352,21.2901474 12.7760426,21.3139007 C12.6303957,21.3543892 12.5376132,21.3263172 12.4777361,21.2232064 C12.4324237,21.1465481 12.4313449,21.1109182 12.4248717,19.2122759 L12.4189379,17.2796232 L12.0111264,17.2796232 L11.6043938,17.2796232 L11.6043938,19.3315821 C11.6043938,21.567089 11.6065516,21.6156752 11.7317001,21.8310742 C11.8687161,22.0664476 12.1891394,22.1404066 12.5268245,22.0135426 L12.5268245,22.0135426 Z M12.8731406,23.9904627 C12.3434173,23.9812853 11.7165959,23.9667094 11.4797848,23.9580719 C9.89007529,23.9008481 8.79880202,23.8398454 8.58087103,23.7955779 C8.27015753,23.7329556 7.92276258,23.5224153 7.72101458,23.2746254 C7.39843356,22.8778378 7.22581495,22.3962942 7.14220281,21.6550841 C6.94854631,19.9318921 6.95286178,17.9220413 7.15407034,16.2593122 C7.24253738,15.5305186 7.46208667,15.0041676 7.83051951,14.6370716 C8.04089844,14.4270711 8.24318588,14.3104641 8.51236302,14.2413637 C9.09602969,14.091826 13.6628708,13.9730597 16.4409515,14.0346022 C18.0457651,14.0702321 19.7795033,14.144731 20.2401792,14.1970962 C20.8362528,14.2651169 21.2548529,14.5739095 21.5445285,15.1596436 C21.7635384,15.6017784 21.8331253,15.9462009 21.9221317,17.0075403 C21.9917186,17.8475424 22.0089805,18.3711941 21.9960341,19.3412994 C21.9814694,20.5019706 21.907567,21.5244411 21.7969832,22.0982986 C21.6804657,22.7050867 21.4053548,23.2222603 21.0487895,23.5024409 C20.774218,23.7189196 20.4813058,23.8155522 20.0200904,23.8414649 C19.8830744,23.8495626 19.7099164,23.8603595 19.6349352,23.8662979 C19.3695341,23.8868121 17.9465094,23.9440358 17.1659496,23.9661696 C16.0061684,23.9985604 13.9768208,24.0098972 12.8731406,23.9904627 Z M11.4419636,13.460563 C11.422544,13.4287121 11.4257806,11.5635403 11.4452002,11.2995551 C11.4705535,10.9610709 11.4133736,10.6943864 11.1706287,10.0130994 C11.0918715,9.79230191 10.9494611,9.3636633 10.8545209,9.06134892 C10.1678225,6.87550795 10.2039645,7.00345172 10.2697753,7.00291187 C10.7223598,6.99913294 11.2806731,7.00183217 11.2871463,7.00831034 C11.2914617,7.01262912 11.4381875,7.54599807 11.6135033,8.19435445 C11.7893585,8.84217099 11.9355449,9.38147825 11.9393209,9.39335489 C11.9425575,9.40415183 12.0455893,9.0267987 12.1680406,8.55443247 C12.4242713,7.56327317 12.5683,7.01640805 12.5736943,7.01154942 C12.5850224,7.00075248 12.7123286,6.99859309 13.1293105,7.00075248 L13.5905258,7.00345172 L13.5802766,7.07741077 C13.5721851,7.1373338 13.2571561,8.19543414 12.9275625,9.27026975 C12.8919599,9.38903611 12.7997168,9.69512943 12.7236567,9.95101696 C12.6475967,10.2063646 12.555893,10.5097587 12.5192116,10.625286 L12.4528613,10.8358264 L12.4528613,12.1487346 C12.4528613,13.3801258 12.4501641,13.4627224 12.4134827,13.4724397 C12.33041,13.4951133 11.4565283,13.4843163 11.4419636,13.460563 Z M17.4026999,13.5393807 C17.1750591,13.5091493 17.0418191,13.4211542 16.9506549,13.2403054 C16.8362951,13.0135696 16.8362951,13.0146493 16.8362951,10.7553892 L16.8362951,8.64728618 L17.2958921,8.64728618 L17.7549497,8.64728618 L17.7646595,10.5907358 C17.7749088,12.701538 17.7722116,12.6524119 17.898439,12.6842629 C18.0144171,12.7128748 18.1428022,12.6507924 18.3024744,12.4877585 L18.4556734,12.3317427 L18.4616072,10.4892445 L18.4670015,8.64728618 L18.9260591,8.64080801 L19.3851167,8.63540954 L19.3851167,11.0479863 L19.3851167,13.4611029 L19.3225425,13.4740592 C19.2475613,13.4897148 18.5516925,13.4886351 18.4955915,13.4724397 C18.4616072,13.4632623 18.4562128,13.4319512 18.4562128,13.2430047 L18.4562128,13.0238267 L18.32567,13.1512307 C18.0257452,13.4432879 17.7020853,13.5793294 17.4026999,13.5393807 L17.4026999,13.5393807 Z M15.0896105,12.6178617 C15.247125,12.4980156 15.2482039,12.4877585 15.2562954,11.1311228 C15.263308,10.0768013 15.259532,9.8975721 15.2277054,9.75397276 C15.1845508,9.5596278 15.1090301,9.46785379 14.9612255,9.42736526 C14.7702661,9.37661963 14.5954898,9.48566875 14.5339944,9.69458958 C14.4876031,9.85546402 14.4881426,12.2469867 14.5350733,12.4078612 C14.5706759,12.5287869 14.6844962,12.6610495 14.7686478,12.6794043 C14.8781528,12.7026177 15.0124716,12.676705 15.09015,12.6178617 L15.0896105,12.6178617 Z M14.7298086,13.538301 C14.3187606,13.4886351 13.9411574,13.2467836 13.7593684,12.9163972 C13.5743428,12.5800724 13.557081,12.4040822 13.5678696,10.9227418 C13.5765006,9.77556665 13.5797372,9.70376698 13.6250495,9.53911361 C13.7334756,9.14772445 13.9433151,8.88103998 14.2685933,8.71962569 C14.7152439,8.49882822 15.1969577,8.52744012 15.618255,8.80060276 C15.8868927,8.97389368 16.0498016,9.22546244 16.1371897,9.59957649 C16.1754895,9.7647697 16.1792655,9.89163378 16.1792655,11.0501457 C16.1792655,12.4591467 16.1727923,12.5406636 16.0282242,12.8456772 C15.8895899,13.1398939 15.5756398,13.3990205 15.2482039,13.4902546 C15.1036358,13.5296635 14.8527994,13.5534168 14.7298086,13.538301 L14.7298086,13.538301 Z" id="Shape" fill="#FFFFFF"></path>
                </g>
            </g>
        </g>
    </g>
</svg>