<?xml version="1.0" encoding="UTF-8"?>
<svg width="15px" height="15px" viewBox="0 0 15 15" version="1.1" xmlns="http://www.w3.org/2000/svg" xmlns:xlink="http://www.w3.org/1999/xlink">
    <!-- Generator: sketchtool 51.2 (57519) - http://www.bohemiancoding.com/sketch -->
    <title>E7041968-9DFD-40A9-8A98-6C6513A3B464</title>
    <desc>Created with sketchtool.</desc>
    <defs>
        <path d="M8.97313913,7.5 L14.4865696,13.0134304 C14.8933657,13.4202266 14.8933657,14.0797734 14.4865696,14.4865696 C14.0797734,14.8933657 13.4202266,14.8933657 13.0134304,14.4865696 L7.5,8.97313913 L1.98656956,14.4865696 C1.57977343,14.8933657 0.920226574,14.8933657 0.513430436,14.4865696 C0.106634299,14.0797734 0.106634299,13.4202266 0.513430436,13.0134304 L6.02686087,7.5 L0.513430436,1.98656956 C0.106634299,1.57977343 0.106634299,0.920226574 0.513430436,0.513430436 C0.920226574,0.106634299 1.57977343,0.106634299 1.98656956,0.513430436 L7.5,6.02686087 L13.0134304,0.513430436 C13.4202266,0.106634299 14.0797734,0.106634299 14.4865696,0.513430436 C14.8933657,0.920226574 14.8933657,1.57977343 14.4865696,1.98656956 L8.97313913,7.5 Z" id="path-1"></path>
    </defs>
    <g id="Cart-&amp;-Checkout" stroke="none" stroke-width="1" fill="none" fill-rule="evenodd">
        <g id="Home_menu" transform="translate(-17.000000, -42.000000)">
            <g id="Cabeçalho" transform="translate(0.000000, 5.000000)">
                <g id="x" transform="translate(17.000000, 37.000000)">
                    <mask id="mask-2" fill="white">
                        <use xlink:href="#path-1"></use>
                    </mask>
                    <use id="Combined-Shape" fill="#FFFFFF" fill-rule="nonzero" xlink:href="#path-1"></use>
                </g>
            </g>
        </g>
    </g>
</svg>