<?xml version="1.0" encoding="UTF-8"?>
<svg width="50px" height="50px" viewBox="0 0 50 50" version="1.1" xmlns="http://www.w3.org/2000/svg" xmlns:xlink="http://www.w3.org/1999/xlink">
    <!-- Generator: sketchtool 53.2 (72643) - https://sketchapp.com -->
    <title>5A2CC05E-4A2F-45CB-BC31-5BE7C58A8972</title>
    <desc>Created with sketchtool.</desc>
    <g id="Blog" stroke="none" stroke-width="1" fill="none" fill-rule="evenodd">
        <g id="Blog---Detail" transform="translate(-230.000000, -1005.000000)">
            <g id="Group" transform="translate(231.000000, 926.000000)">
                <g id="linkedin" transform="translate(0.000000, 80.000000)">
                    <circle id="Oval" stroke="#f4c4f3" cx="24" cy="24" r="24"></circle>
                    <path d="M13.3650047,19.9826866 L17.7309501,19.9826866 L17.7309501,35.1985658 L13.3650047,35.1985658 L13.3650047,19.9826866 Z M15.4366886,18.0794468 L15.40508,18.0794468 C13.8246472,18.0794468 12.8,16.9162761 12.8,15.443309 C12.8,13.9402228 13.8549389,12.8 15.4669802,12.8 C17.0777046,12.8 18.0681091,13.9373543 18.0997178,15.4390063 C18.0997178,16.9119734 17.0777046,18.0794468 15.4366886,18.0794468 L15.4366886,18.0794468 Z M35.2,35.2 L30.2492944,35.2 L30.2492944,27.3245742 C30.2492944,25.2635677 29.4748824,23.85801 27.7719661,23.85801 C26.4694262,23.85801 25.7450611,24.8060443 25.4079022,25.7225253 C25.2814675,26.0495326 25.301223,26.507056 25.301223,26.9660136 L25.301223,35.2 L20.3966134,35.2 C20.3966134,35.2 20.4598307,21.250557 20.3966134,19.9826866 L25.301223,19.9826866 L25.301223,22.3707005 C25.590969,21.3265719 27.1582314,19.8363939 29.6592662,19.8363939 C32.7621825,19.8363939 35.2,22.0264823 35.2,26.737969 L35.2,35.2 L35.2,35.2 Z" id="Shape" fill="#32ff03"></path>
                </g>
            </g>
        </g>
    </g>
</svg>